<?xml version="1.0" encoding="utf-8"?>
<!-- Generator: Adobe Illustrator 16.0.0, SVG Export Plug-In . SVG Version: 6.00 Build 0)  -->
<!DOCTYPE svg PUBLIC "-//W3C//DTD SVG 1.1//EN" "http://www.w3.org/Graphics/SVG/1.1/DTD/svg11.dtd">
<svg version="1.1" id="Layer_1" xmlns="http://www.w3.org/2000/svg" xmlns:xlink="http://www.w3.org/1999/xlink" x="0px" y="0px"
	 width="201.349px" height="205.406px" viewBox="0 0 201.349 205.406" enable-background="new 0 0 201.349 205.406"
	 xml:space="preserve">
<g>
	<circle cx="136.688" cy="98.419" r="11.155"/>
	<path d="M97.49,16.378c-47.367,0-85.767,38.399-85.767,85.766c0,47.367,38.399,85.767,85.767,85.767s85.766-38.399,85.766-85.767
		C183.256,54.778,144.857,16.378,97.49,16.378z M70.49,40.715c8.264-3.637,17.392-5.671,27-5.671
		c18.578,0,35.391,7.552,47.541,19.751H123.99c-13.621,0-26.5,12.879-26.5,26.5v32.528h-13.5c-6.435,0-13.5-7.065-13.5-13.5V40.715z
		 M30.39,102.145c0-22.068,10.656-41.646,27.101-53.875v52.054c0,13.622,12.879,26.5,26.5,26.5h13.5v4.472
		c0,6.436-7.065,13.5-13.5,13.5H45.688C36.131,133.202,30.39,118.344,30.39,102.145z M97.49,169.245
		c-13.89,0-26.794-4.221-37.499-11.449H83.99c13.621,0,26.5-12.878,26.5-26.5v-50c0-6.434,7.065-13.5,13.5-13.5h31.143
		c6.001,10.05,9.458,21.794,9.458,34.35C164.591,139.204,134.549,169.245,97.49,169.245z"/>
</g>
</svg>
